<?xml version="1.0" encoding="UTF-8" standalone="no"?>
<!-- Created with Inkscape (http://www.inkscape.org/) -->

<svg
   width="375"
   height="300"
   viewBox="0 0 375 300"
   version="1.1"
   id="svg1"
   xml:space="preserve"
   xmlns:xlink="http://www.w3.org/1999/xlink"
   xmlns="http://www.w3.org/2000/svg"
   xmlns:svg="http://www.w3.org/2000/svg"><defs
     id="defs1"><linearGradient
       id="linearGradient4"><stop
         style="stop-color:#5bcefa;stop-opacity:1;"
         offset="0"
         id="stop4" /><stop
         style="stop-color:#5bcefa;stop-opacity:1;"
         offset="0.2"
         id="stop10" /><stop
         style="stop-color:#f5a9b8;stop-opacity:1;"
         offset="0.2"
         id="stop6" /><stop
         style="stop-color:#f5a9b8;stop-opacity:1;"
         offset="0.40000001"
         id="stop11" /><stop
         style="stop-color:#e5e5e5;stop-opacity:1;"
         offset="0.40000001"
         id="stop7" /><stop
         style="stop-color:#e5e5e5;stop-opacity:1;"
         offset="0.60000002"
         id="stop12" /><stop
         style="stop-color:#f5a9b8;stop-opacity:1;"
         offset="0.60000002"
         id="stop8" /><stop
         style="stop-color:#f5a9b8;stop-opacity:1;"
         offset="0.80000001"
         id="stop13" /><stop
         style="stop-color:#5bcefa;stop-opacity:1;"
         offset="0.80000001"
         id="stop9" /><stop
         style="stop-color:#5bcefa;stop-opacity:1;"
         offset="1"
         id="stop14" /><stop
         style="stop-color:#5bcefa;stop-opacity:1;"
         offset="1"
         id="stop5" /></linearGradient><linearGradient
       xlink:href="#linearGradient4"
       id="linearGradient5"
       x1="187.5"
       y1="300"
       x2="187.5"
       y2="-0.0004365324"
       gradientUnits="userSpaceOnUse" /></defs><path
     id="path23"
     style="font-variation-settings:normal;baseline-shift:baseline;display:inline;overflow:visible;vector-effect:none;fill:url(#linearGradient5);fill-opacity:1;stroke:none;stroke-width:13.7874;stroke-linecap:butt;stroke-linejoin:miter;stroke-miterlimit:4;stroke-dasharray:none;stroke-dashoffset:0;stroke-opacity:1;-inkscape-stroke:none;enable-background:accumulate;stop-color:#000000"
     d="M 255.82422,0.009771 C 250.14947,-0.178572 244.57591,2.24529 240.83788,6.798832 L -2.0163962e-6,300 69.777341,273.87696 109.82812,225.07227 c 16.00287,-4.03012 40.04044,-12.96459 68.68556,-25.77539 29.44848,-13.17009 60.10955,-28.83283 88.34765,-45.20313 7.19717,-4.17237 14.0296,-8.26918 20.5371,-12.28906 17.31112,-10.69357 35.76098,-23.6517 51.1836,-37.83399 9.13615,-8.401392 17.3767,-17.384402 23.68164,-26.726552 6.00502,-8.89777 10.4319,-18.38892 11.97851,-28.15431 0.67494,-4.40135 0.90139,-8.54868 0.66992,-12.43163 -0.23127,-3.88008 -0.91946,-7.48113 -2.0625,-10.7793 -1.15065,-3.32006 -2.73575,-6.25429 -4.68164,-8.79688 -1.96419,-2.566481 -4.23215,-4.650895 -6.66407,-6.32812 -4.96623,-3.425073 -10.58681,-5.133464 -15.88084,-5.955077 -5.70296,-0.88513 -11.55869,-0.821411 -16.81447,-0.390655 -9.08602,0.744627 -17.7277,2.712396 -23.30077,4.087891 -2.66057,0.656687 -5.12869,1.325585 -7.34181,1.966795 -11.81863,3.424008 -13.83746,4.975755 -13.85741,5.152339 v 0.002 0.0019 0.002 0.002 c 0.0914,0.290052 3.25184,-0.515581 14.51953,-1.996101 2.2432,-0.294776 4.74103,-0.582315 7.40039,-0.816387 5.65371,-0.49759 14.10359,-0.84111 22.46483,0.148443 4.86513,0.575782 9.72411,1.605687 13.94923,3.316412 3.97611,1.6099 7.0387,3.67979 9.06836,6.15233 0.96475,1.17526 1.6767,2.41521 2.18555,3.73633 0.49959,1.29715 0.83329,2.75122 0.98433,4.40626 0.15114,1.65563 0.12654,3.60517 -0.16017,5.90234 -0.28861,2.31285 -0.84525,4.98932 -1.76564,8.08007 -1.70047,5.47398 -5.18541,11.48915 -10.56249,18.00977 -5.6292,6.82634 -13.00702,13.81326 -21.64063,20.82227 -14.06146,11.41546 -30.77384,22.341042 -46.94531,32.080072 V 18.597728 c -0.008,-7.857317 -4.94348,-14.865756 -12.33593,-17.51172 -1.84829,-0.66121 -3.75491,-1.013372 -5.64649,-1.076166 z m -19.22655,70.587887 v 65.291012 c -23.26237,11.74064 -47.78418,22.56595 -71.46681,32.53321 -4.6137,1.94176 -9.08756,3.80719 -13.40625,5.59961 z m 37.20897,97.904302 c -9.96356,5.75831 -20.19394,11.41287 -30.56055,16.90624 l -6.64842,3.5254 v 84.94336 h 37.20897 z" /></svg>
