<?xml version="1.0" encoding="UTF-8" standalone="no"?>
<!-- Created with Inkscape (http://www.inkscape.org/) -->

<svg
   width="375"
   height="300"
   viewBox="0 0 375 300"
   version="1.1"
   id="svg1"
   sodipodi:docname="auroralogo-aonly-w.svg"
   xml:space="preserve"
   inkscape:export-filename="color alts/auroralogo-t.svg"
   inkscape:export-xdpi="96"
   inkscape:export-ydpi="96"
   xmlns:inkscape="http://www.inkscape.org/namespaces/inkscape"
   xmlns:sodipodi="http://sodipodi.sourceforge.net/DTD/sodipodi-0.dtd"
   xmlns:xlink="http://www.w3.org/1999/xlink"
   xmlns="http://www.w3.org/2000/svg"
   xmlns:svg="http://www.w3.org/2000/svg"><sodipodi:namedview
     id="namedview1"
     pagecolor="#ffffff"
     bordercolor="#000000"
     borderopacity="0.25"
     inkscape:showpageshadow="2"
     inkscape:pageopacity="0.0"
     inkscape:pagecheckerboard="0"
     inkscape:deskcolor="#d1d1d1"><inkscape:page
       x="0"
       y="0"
       width="375"
       height="300"
       id="page2"
       margin="0"
       bleed="0" /></sodipodi:namedview><defs
     id="defs1"><linearGradient
       id="linearGradient4"
       inkscape:collect="always"><stop
         style="stop-color:#770088;stop-opacity:1;"
         offset="0"
         id="stop4" /><stop
         style="stop-color:#770088;stop-opacity:1;"
         offset="0.17"
         id="stop33" /><stop
         style="stop-color:#004cff;stop-opacity:1;"
         offset="0.17"
         id="stop14" /><stop
         style="stop-color:#004cff;stop-opacity:1;"
         offset="0.33000001"
         id="stop34" /><stop
         style="stop-color:#028121;stop-opacity:1;"
         offset="0.33000001"
         id="stop15" /><stop
         style="stop-color:#028121;stop-opacity:1;"
         offset="0.5"
         id="stop35" /><stop
         style="stop-color:#ffee00;stop-opacity:1;"
         offset="0.5"
         id="stop16" /><stop
         style="stop-color:#ffee00;stop-opacity:1;"
         offset="0.66000003"
         id="stop36" /><stop
         style="stop-color:#ff8d00;stop-opacity:1;"
         offset="0.66000003"
         id="stop17" /><stop
         style="stop-color:#ff8d00;stop-opacity:1;"
         offset="0.82999998"
         id="stop37" /><stop
         style="stop-color:#e50000;stop-opacity:1;"
         offset="0.82999998"
         id="stop19" /><stop
         style="stop-color:#e50000;stop-opacity:1;"
         offset="1"
         id="stop5" /></linearGradient><linearGradient
       inkscape:collect="always"
       xlink:href="#linearGradient4"
       id="linearGradient5"
       x1="187.5"
       y1="300"
       x2="187.5"
       y2="-0.0004365324"
       gradientUnits="userSpaceOnUse"
       gradientTransform="matrix(1,0,0,0.99999854,0,4.3653175e-4)" /></defs><path
     id="path23"
     style="font-variation-settings:normal;baseline-shift:baseline;display:inline;overflow:visible;vector-effect:none;fill:url(#linearGradient5);fill-opacity:1;stroke:none;stroke-width:13.7874;stroke-linecap:butt;stroke-linejoin:miter;stroke-miterlimit:4;stroke-dasharray:none;stroke-dashoffset:0;stroke-opacity:1;-inkscape-stroke:none;enable-background:accumulate;stop-color:#000000"
     d="M 255.82422,0.01020752 C 250.14947,-0.17813521 244.57591,2.2457233 240.83788,6.7992586 L -2.0163962e-6,300 69.777341,273.877 109.82812,225.07238 c 16.00287,-4.03012 40.04044,-12.96457 68.68556,-25.77535 29.44848,-13.17007 60.10955,-28.83279 88.34765,-45.20307 7.19717,-4.17236 14.0296,-8.26917 20.5371,-12.28904 17.31112,-10.69355 35.76098,-23.65167 51.1836,-37.83393 9.13615,-8.401385 17.3767,-17.384381 23.68164,-26.726518 6.00502,-8.897757 10.4319,-18.388893 11.97851,-28.154269 0.67494,-4.401343 0.90139,-8.548667 0.66992,-12.431612 -0.23127,-3.880074 -0.91946,-7.481119 -2.0625,-10.779284 -1.15065,-3.320055 -2.73575,-6.254281 -4.68164,-8.796867 -1.96419,-2.566478 -4.23215,-4.650889 -6.66407,-6.328111 -4.96623,-3.4250681 -10.58681,-5.1334566 -15.88084,-5.9550685 -5.70296,-0.8851287 -11.55869,-0.8214098 -16.81447,-0.3906544 -9.08602,0.7446259 -17.7277,2.7123921 -23.30077,4.0878851 -2.66057,0.656686 -5.12869,1.325583 -7.34181,1.9667918 -11.81863,3.424003 -13.83746,4.975748 -13.85741,5.152332 v 0.002 0.0019 0.002 0.002 c 0.0914,0.290051 3.25184,-0.51558 14.51953,-1.996098 2.2432,-0.294776 4.74103,-0.582314 7.40039,-0.816386 5.65371,-0.497589 14.10359,-0.841109 22.46483,0.148443 4.86513,0.575781 9.72411,1.605684 13.94923,3.316407 3.97611,1.609898 7.0387,3.679784 9.06836,6.152321 0.96475,1.175258 1.6767,2.415206 2.18555,3.736324 0.49959,1.297149 0.83329,2.751216 0.98433,4.406254 0.15114,1.655628 0.12654,3.605165 -0.16017,5.902331 -0.28861,2.312847 -0.84525,4.989313 -1.76564,8.080059 -1.70047,5.473972 -5.18541,11.489133 -10.56249,18.009743 -5.6292,6.826331 -13.00702,13.81324 -21.64063,20.82224 -14.06146,11.415444 -30.77384,22.341007 -46.94531,32.080027 V 18.598137 C 273.79857,10.740832 268.86309,3.7324031 261.47064,1.086443 259.62235,0.42523391 257.71573,0.07307243 255.82415,0.01027852 Z M 236.59767,70.597992 v 65.290918 c -23.26237,11.74062 -47.78418,22.56592 -71.46681,32.53316 -4.6137,1.94176 -9.08756,3.80719 -13.40625,5.5996 z m 37.20897,97.904158 c -9.96356,5.7583 -20.19394,11.41285 -30.56055,16.90622 l -6.64842,3.52539 V 273.877 h 37.20897 z" /></svg>
