<?xml version="1.0" encoding="UTF-8" standalone="no"?>
<svg
   width="256"
   height="256"
   version="1.1"
   id="svg1"
   xmlns="http://www.w3.org/2000/svg"
   xmlns:svg="http://www.w3.org/2000/svg">
  <defs
     id="defs1">
    <style
       type="text/css"
       id="current-color-scheme">.ColorScheme-Text { color:#232629; }</style>
  </defs>
  <path
      class="ColorScheme-Text"
      d="M 128,10.785156 C 63.264512,10.785109 10.785105,63.264512 10.785156,128 c -1.9e-5,24.11851 7.284619,46.53621 19.773438,65.17188 L -0.06054687,230.44727 47.080078,212.79883 C 68.118833,232.88113 96.618775,245.21486 128,245.21484 192.73548,245.21488 245.21489,192.73548 245.21484,128 c 1e-5,-13.60686 -2.31849,-26.67196 -6.58203,-38.822266 3.26453,-3.519699 6.22054,-7.153021 8.72852,-10.86914 4.10135,-6.077056 7.12532,-12.558885 8.18164,-19.228516 0.46101,-3.006063 0.61512,-5.838234 0.45703,-8.490234 -0.15796,-2.650044 -0.6275,-5.11067 -1.4082,-7.363282 -0.78589,-2.267555 -1.86825,-4.271259 -3.19727,-6.007812 -1.34151,-1.752876 -2.89176,-3.176743 -4.55273,-4.322266 -3.39188,-2.339279 -7.22994,-3.505256 -10.84571,-4.066406 -3.89504,-0.604532 -7.89475,-0.561779 -11.48437,-0.267578 -6.20564,0.508564 -12.10773,1.851571 -15.91406,2.791016 -1.81713,0.448487 -3.5041,0.905812 -5.01563,1.34375 -2.1579,0.625172 -3.83568,1.16051 -5.13867,1.609375 C 178.83363,19.539958 154.43859,10.785137 128,10.785156 Z m -0.69922,10.236328 c 13.75888,3e-6 26.91023,2.596873 38.99219,7.328125 -0.67415,0.541731 -1.29891,1.1582 -1.86328,1.845703 L 36.988281,185.34375 C 26.144611,168.26641 20.320306,148.38829 20.320312,128 20.320322,68.917049 68.217828,21.021499 127.30078,21.021484 Z m 88.76758,12.949219 c 2.6393,-0.01665 5.50992,0.09372 8.36523,0.431641 3.32282,0.393272 6.64165,1.097224 9.52735,2.265625 2.71562,1.099539 4.80518,2.512456 6.1914,4.201172 0.65891,0.802688 1.14661,1.650425 1.49414,2.552734 0.34122,0.885931 0.56872,1.879399 0.67188,3.009766 0.10322,1.130778 0.0864,2.462314 -0.10938,4.03125 -0.19713,1.579643 -0.57647,3.406637 -1.20507,5.517578 -1.1614,3.738654 -3.54237,7.847286 -7.21485,12.300781 -0.92473,1.121397 -1.91835,2.25003 -2.97656,3.382812 -7.73915,-14.093681 -18.29221,-26.424452 -30.90234,-36.234374 1.15493,-0.168188 2.51917,-0.359314 4.125,-0.570313 1.53207,-0.201328 3.23838,-0.398726 5.05468,-0.558594 1.93071,-0.169924 4.33922,-0.313424 6.97852,-0.330078 z m -29.12305,5.207031 c 15.06249,10.134834 27.40769,24.000011 35.70899,40.271485 -1.17376,1.016321 -2.38985,2.034145 -3.64453,3.052734 -9.60379,7.796608 -21.01956,15.260472 -32.06446,21.912107 z M 161.5332,73.769531 v 44.591799 c -15.88787,8.01869 -32.63758,15.41319 -48.8125,22.2207 -3.15091,1.32612 -6.20484,2.60008 -9.15429,3.82422 z m 68.39649,23.935547 c 2.83072,9.605002 4.34961,19.773002 4.34961,30.294922 -1e-5,59.08295 -47.89557,106.97851 -106.97852,106.97852 -27.666031,0 -54.054961,-10.70457 -73.816405,-29.54493 l 21.466797,-26.16015 c 10.929741,-2.75252 27.345928,-8.85391 46.910158,-17.60352 20.11292,-8.99499 41.05555,-19.6943 60.34179,-30.875 4.91558,-2.84967 9.58281,-5.64705 14.02735,-8.39258 11.35648,-7.01522 23.42914,-15.45787 33.69922,-24.697262 z m -42.98438,42.931642 c -6.80497,3.93285 -13.79083,7.79497 -20.87109,11.54687 l -4.54102,2.40821 v 58.01367 h 25.41211 z"
     fill="currentColor"
     id="path1"
     style="stroke-width:0.682608" />
</svg>
