<?xml version="1.0" encoding="UTF-8" standalone="no"?>
<svg
   width="256"
   height="256"
   version="1.1"
   id="svg1"
   xmlns="http://www.w3.org/2000/svg"
   xmlns:svg="http://www.w3.org/2000/svg">
  <defs
     id="defs1">
    <style
       type="text/css"
       id="current-color-scheme">.ColorScheme-Text { color:#232629; }</style>
  </defs>
  <path
     class="ColorScheme-Text"
     d="m 174.63882,25.615196 c -3.87363,-0.128566 -7.67821,1.525989 -10.22981,4.634287 L 0.01044217,230.39177 47.641215,212.55992 74.98032,179.24531 c 10.92372,-2.75102 27.33202,-8.84978 46.8855,-17.59458 20.10185,-8.99004 41.03143,-19.68159 60.30705,-30.85613 4.91288,-2.84811 9.57676,-5.64464 14.01886,-8.38865 11.81676,-7.29955 24.41083,-16.14491 34.93848,-25.825895 6.23643,-5.734881 11.86153,-11.866783 16.16534,-18.243837 4.09909,-6.073711 7.12092,-12.552472 8.17667,-19.218431 0.46073,-3.004409 0.61532,-5.835429 0.45736,-8.485969 -0.15859,-2.648585 -0.62764,-5.106699 -1.4078,-7.35807 -0.78558,-2.266308 -1.86758,-4.269244 -3.19588,-6.004841 -1.34079,-1.751911 -2.88893,-3.174754 -4.54897,-4.319647 -3.39002,-2.337992 -7.22669,-3.504158 -10.84045,-4.065 -3.89291,-0.604195 -7.89007,-0.560702 -11.47773,-0.266662 -6.20223,0.508286 -12.10113,1.851511 -15.90537,2.790439 -1.81612,0.44826 -3.50091,0.904851 -5.01159,1.342555 -8.06752,2.337265 -9.4456,3.396505 -9.45922,3.517043 v 0.0014 0.0013 0.0014 0.0014 c 0.0625,0.197986 2.21974,-0.351935 9.91118,-1.362563 1.53116,-0.201223 3.23628,-0.397495 5.05159,-0.557274 3.85929,-0.339664 9.62727,-0.574143 15.33475,0.101404 3.32098,0.393041 6.63778,1.096061 9.5219,2.263816 2.71412,1.098929 4.80468,2.511865 6.19015,4.199652 0.65856,0.802246 1.1446,1.648646 1.4919,2.55046 0.34106,0.885436 0.56886,1.878014 0.67187,3.007758 0.10252,1.130151 0.0865,2.460932 -0.10894,4.029003 -0.19704,1.57878 -0.57702,3.405766 -1.20531,5.515546 -1.16078,3.736603 -3.5396,7.842622 -7.21006,12.293667 -3.84254,4.65965 -8.87872,9.429 -14.77212,14.213428 -9.5985,7.792315 -21.00656,15.250236 -32.0454,21.898208 V 38.303483 c -0.006,-5.363491 -3.37478,-10.147528 -8.42096,-11.953692 -1.26165,-0.451348 -2.56312,-0.691738 -3.85433,-0.734603 z m -13.12425,48.184059 v 44.568355 c -15.87912,8.01429 -32.61799,15.40376 -48.78401,22.20752 -3.14936,1.32547 -6.20327,2.59883 -9.15125,3.82236 z m 25.39926,66.830545 c -6.80124,3.93068 -13.7846,7.79054 -20.86097,11.54038 l -4.53829,2.40648 v 57.98326 h 25.39926 z"
     fill="currentColor"
     id="path1"
     style="stroke-width:0.682608" />
</svg>
