<?xml version="1.0" encoding="UTF-8" standalone="no"?>
<svg
   width="16"
   height="16"
   version="1.1"
   id="svg1"
   xmlns="http://www.w3.org/2000/svg"
   xmlns:svg="http://www.w3.org/2000/svg">
  <defs
     id="defs1">
    <style
       type="text/css"
       id="current-color-scheme">.ColorScheme-Text { color:#232629; }</style>
  </defs>
  <path
     class="ColorScheme-Text"
     d="M 10.911359,1.6087805 C 10.669553,1.600755 10.432058,1.7040381 10.272778,1.898069 L 0.01044187,14.391654 2.9837221,13.278527 4.6903251,11.198912 C 5.3722221,11.027184 6.396486,10.646478 7.6170827,10.100597 8.8719111,9.5394071 10.178409,8.8720028 11.381661,8.1744484 11.68834,7.9966595 11.979476,7.8220903 12.256767,7.6507994 12.994411,7.1951361 13.780577,6.6429777 14.43775,6.0386564 14.82705,5.680665 15.178188,5.2978901 15.446847,4.899812 15.702727,4.5206696 15.89136,4.1162426 15.957264,3.70013 15.986024,3.5125842 15.995674,3.335862 15.985814,3.170406 15.975914,3.005072 15.946634,2.8516279 15.897934,2.7110894 15.848895,2.5696185 15.781353,2.4445882 15.698436,2.3362461 15.614739,2.2268857 15.518099,2.1380668 15.414473,2.0665986 15.202856,1.9206529 14.963358,1.8478567 14.737774,1.812847 14.494765,1.775131 14.245248,1.777846 14.021294,1.796201 13.634129,1.82793 13.265899,1.9117788 13.028425,1.97039 12.915056,1.998372 12.809886,2.026874 12.715584,2.054197 12.211981,2.2000973 12.125956,2.2662188 12.125106,2.2737432 v 8.52e-5 8.09e-5 8.53e-5 8.52e-5 c 0.0039,0.012359 0.138564,-0.021969 0.618691,-0.085056 0.09558,-0.012561 0.20202,-0.024813 0.315338,-0.034787 0.24091,-0.021203 0.600968,-0.03584 0.957249,0.00633 0.207307,0.024535 0.414353,0.06842 0.59439,0.1413154 0.169425,0.068599 0.299925,0.1567994 0.386411,0.262157 0.04111,0.050079 0.07145,0.1029143 0.09313,0.1592087 0.02129,0.055272 0.03551,0.1172322 0.04194,0.1877548 0.0064,0.070548 0.0054,0.15362 -0.0068,0.2515045 -0.0123,0.098553 -0.03602,0.2125999 -0.07524,0.3442998 -0.07246,0.2332519 -0.220954,0.489564 -0.450077,0.7674139 C 14.360273,4.5650926 14.045897,4.8628122 13.67801,5.161473 13.078838,5.6478967 12.366707,6.1134463 11.677624,6.528436 V 2.400828 C 11.677264,2.06602 11.466958,1.7673836 11.151958,1.6546365 11.073201,1.6264618 10.991959,1.6114558 10.911357,1.60878 Z M 10.092097,4.6165988 V 7.398712 C 9.1008663,7.8989923 8.0559676,8.3602691 7.046828,8.7849837 6.8502337,8.8677239 6.6595981,8.9472119 6.4755745,9.0235886 Z m 1.585511,4.1717973 c -0.424557,0.2453672 -0.860483,0.4863134 -1.302215,0.7203911 l -0.283296,0.150221 v 3.6195188 h 1.585511 z"
     fill="currentColor"
     id="path1"
     style="stroke-width:0.0426108" />
</svg>
