<?xml version="1.0" encoding="UTF-8" standalone="no"?>
<!-- Created with Inkscape (http://www.inkscape.org/) -->

<svg
   width="375"
   height="375"
   viewBox="0 0 375 375"
   version="1.1"
   id="svg1"
   xmlns:xlink="http://www.w3.org/1999/xlink"
   xmlns="http://www.w3.org/2000/svg"
   xmlns:svg="http://www.w3.org/2000/svg">
  <defs
     id="defs1">
    <linearGradient
       id="linearGradient9">
      <stop
         offset="0"
         style="stop-color:#ffbe8f;stop-opacity:1;"
         id="stop5" />
      <stop
         offset="0.29142818"
         style="stop-color:#b64d5f;stop-opacity:1;"
         id="stop6" />
      <stop
         offset="0.54470932"
         style="stop-color:#6d4793;stop-opacity:1;"
         id="stop7" />
      <stop
         offset="0.7482971"
         style="stop-color:#4f5fb0;stop-opacity:1;"
         id="stop8" />
      <stop
         offset="1"
         style="stop-color:#4075bf;stop-opacity:1;"
         id="stop9" />
    </linearGradient>
    <radialGradient
       xlink:href="#linearGradient9"
       id="radialGradient23"
       gradientUnits="userSpaceOnUse"
       gradientTransform="matrix(20.084458,6.8416397e-7,-0.12843747,5.8745574,-471.38057,-424.33457)"
       cx="24.299227"
       cy="129.68373"
       fx="24.299227"
       fy="129.68373"
       r="51.055538" />
  </defs>
  <path
     id="path18"
     style="font-weight:596;font-size:31.4035px;font-family:'Red Hat Display';-inkscape-font-specification:'Red Hat Display weight=596';font-variation-settings:normal;letter-spacing:-1.2267px;display:inline;vector-effect:none;fill:url(#radialGradient23);fill-opacity:1;stroke:none;stroke-width:13.7874;stroke-linecap:butt;stroke-linejoin:miter;stroke-miterlimit:4;stroke-dasharray:none;stroke-dashoffset:0;stroke-opacity:1;-inkscape-stroke:none;stop-color:#000000"
     d="m 255.82503,37.510213 c -5.67476,-0.188343 -11.24893,2.23422 -14.98694,6.787765 L 2.9310513e-7,337.5 69.777811,311.37629 109.82817,262.57286 c 16.00289,-4.03012 40.03999,-12.96526 68.68515,-25.77604 29.44851,-13.17011 60.10975,-28.83416 88.34784,-45.20446 7.1972,-4.17237 14.03011,-8.26918 20.53762,-12.28907 17.31114,-10.69359 35.76038,-23.64977 51.183,-37.83207 9.13617,-8.40141 17.37634,-17.38444 23.68129,-26.72658 6.00504,-8.89778 10.43225,-18.389571 11.97887,-28.154968 0.67493,-4.401354 0.90167,-8.548045 0.6702,-12.431008 -0.23127,-3.880079 -0.91968,-7.48177 -2.06276,-10.779944 -1.15067,-3.320072 -2.73509,-6.252995 -4.68097,-8.795583 -1.96421,-2.566488 -4.23228,-4.65221 -6.6642,-6.329426 -4.96625,-3.425077 -10.58607,-5.132821 -15.88011,-5.954433 -5.70296,-0.885132 -11.55921,-0.821381 -16.815,-0.390625 -9.08605,0.744626 -17.72748,2.710444 -23.30055,4.085934 -2.66057,0.656686 -5.13041,1.327546 -7.34353,1.968755 -11.81865,3.424005 -13.8365,4.97577 -13.85646,5.152346 -2e-5,6.59e-4 -6e-5,0.0029 0,0.0044 v 0.0014 0.0014 c 0.0914,0.290046 3.25242,-0.514281 14.52014,-1.994792 2.24321,-0.294772 4.74156,-0.583634 7.4009,-0.817713 5.65371,-0.49759 14.10349,-0.841117 22.46476,0.148446 4.86513,0.575778 9.72393,1.606987 13.94904,3.317716 3.97612,1.609898 7.03762,3.679793 9.06729,6.152341 0.96474,1.175266 1.67648,2.41456 2.18531,3.735684 0.4996,1.29715 0.83339,2.751213 0.98444,4.406255 0.15112,1.655624 0.12759,3.606475 -0.15907,5.903646 -0.2886,2.312837 -0.84506,4.98737 -1.76547,8.078131 -1.70049,5.473974 -5.18575,11.489804 -10.56285,18.010418 -5.62918,6.82635 -13.00709,13.81392 -21.6407,20.82294 -14.06148,11.41533 -30.77385,22.34027 -46.94535,32.07932 V 56.097909 c -0.007,-7.857334 -4.94368,-14.86577 -12.33612,-17.511736 -1.8483,-0.661211 -3.75428,-1.012727 -5.64585,-1.075522 z M 236.59781,108.0962 v 65.2917 c -23.26236,11.74064 -47.785,22.56663 -71.46764,32.53391 -4.61428,1.94197 -9.08873,3.80763 -13.40794,5.60026 z m 37.20919,97.90631 c -9.96358,5.75833 -20.19401,11.4116 -30.56063,16.90498 l -6.64856,3.52603 v 84.94277 H 273.807 Z" />
</svg>
