<svg xmlns="http://www.w3.org/2000/svg" xml:space="preserve" width="256" height="256"><path d="M128.586 1.754A126.246 126.246 0 0 0 2.34 128a126.246 126.246 0 0 0 126.246 126.246A126.246 126.246 0 0 0 254.832 128 126.246 126.246 0 0 0 128.586 1.754m0 19.482a106.76 106.76 0 0 1 96.045 60.137c-9.037 3.325-18.95 6.991-21.512 7.973-8.557 3.276-20.972 8.15-26.308 10.328-1.921.784-3.466 1.343-3.653 1.32-.26-.031-.426-.242-.855-1.084a1830 1830 0 0 0-2.744-5.338c-1.218-2.362-5.885-11.699-10.371-20.75-12.947-26.119-13.863-27.92-15.39-30.254-1.8-2.755-4.89-5.486-7.92-7.002-2.252-1.127-5.39-1.721-8.306-1.646a16.3 16.3 0 0 0-2.802.303c-4.032.815-7.5 2.573-9.512 4.82-1.683 1.878-3.461 4.262-4.113 5.512-1.102 2.11-4.104 8.443-5.018 10.586a109 109 0 0 1-2.033 4.4 82 82 0 0 0-1.95 4.293 122 122 0 0 1-2.003 4.539 334 334 0 0 0-2.371 5.219 302 302 0 0 1-2.348 5.156c-.657 1.4-1.583 3.425-2.057 4.502a369 369 0 0 1-2.511 5.5 398 398 0 0 0-2.249 4.895c-.328.742-1.197 2.652-1.931 4.242s-1.334 2.984-1.334 3.1c0 .114-.12.33-.266.48-.154.157-.234.356-.19.474.046.12-.029.31-.179.452a1.44 1.44 0 0 0-.346.6c-.047.195-.124.386-.171.421-.048.036-.437.829-.866 1.762-.428.933-1.71 3.715-2.847 6.183s-2.133 4.715-2.215 4.993c-.077.26-.175.476-.227.502l-.006.001h-.004c-.139 0-.384.636-.384.995 0 .18-.052.295-.116.255-.139-.087-.27.227-.27.649 0 .17-.094.362-.21.428s-.225.304-.242.53c-.018.233-.172.556-.356.743-.178.182-.479.723-.668 1.203s-.392.935-.449 1.006c-.136.172-2.22 4.665-3.088 6.656-.375.861-.758 1.643-.851 1.739-.093.095-.17.31-.17.48a.82.82 0 0 1-.192.502c-.106.108-.191.347-.191.531s-.062.336-.137.336-.102.055-.062.121-.015.208-.121.317c-.107.108-.196.262-.196.341 0 .226-.49 1.15-.623 1.178h-.006c-.061.006-.182.196-.267.426-.086.233-.206.557-.27.719-.063.162-.168.425-.23.586-.583 1.51-.867 2.13-1.164 2.547-.192.268-.388.648-.436.843a1.5 1.5 0 0 1-.355.608c-.15.142-.228.325-.176.41.051.084-.03.32-.18.525s-.271.458-.271.559-.117.333-.258.516c-.141.182-.258.438-.258.57s-.103.417-.23.633c-.127.215-.395.787-.596 1.271-.195.47-.402.857-.469.881h-.002l-.002.002h-.002c-.06 0-.109.089-.109.2a.32.32 0 0 1-.191.275c-.106.04-.194.182-.194.312a.67.67 0 0 1-.17.41c-.093.096-.206.362-.252.592-.045.231-.24.671-.431.979-.192.306-2.233 4.436-4.535 9.173s-4.64 9.493-5.194 10.57l-2.517 4.893c-3.47 6.747-5.002 9.825-5.002 10.053a.7.7 0 0 1-.186.43c-.102.104-.225.358-.273.564s-.144.446-.213.535c-.199.256-.867 1.736-.867 1.92 0 .092-.105.31-.233.48-.127.171-.372.686-.545 1.143-.173.458-.439.918-.593 1.022-.155.104-.255.262-.221.351.024.063-.03.268-.123.526A106.76 106.76 0 0 1 21.822 128 106.764 106.764 0 0 1 128.586 21.236m-.37 39.403c1.488 0 2.8.84 3.83 2.459.324.507 1.302 2.45 2.173 4.316.87 1.866 5.796 11.97 10.949 22.45s9.402 19.263 9.443 19.52l.075.47-1.778.76c-3.074 1.313-9.263 4.045-11.5 5.075-8.991 4.143-28.45 14.327-36.105 18.897-.777.464-3.523 2.107-6.1 3.652a936 936 0 0 1-6.545 3.895c-1.024.597-2.324 1.398-2.888 1.781-.716.487-1.152.697-1.444.697-.515 0-.525-.137-.097-1.17.492-1.189 3.928-8.623 6.035-13.056a556 556 0 0 0 6.353-13.834c.974-2.19 2.648-5.919 3.72-8.287 1.073-2.37 3.154-7.038 4.624-10.375 1.47-3.338 3.221-7.271 3.89-8.743.669-1.471 2.182-4.85 3.364-7.505s2.637-5.915 3.236-7.243a575 575 0 0 0 2.371-5.351c1.937-4.441 2.836-6.147 3.715-7.055 1.009-1.042 1.627-1.353 2.68-1.353m103.643 40.28A106.8 106.8 0 0 1 235.35 128a106.764 106.764 0 0 1-106.763 106.764 106.76 106.76 0 0 1-67.297-23.88 92 92 0 0 1 6.56-12.96c1.936-3.159 6.489-9.425 9.2-12.66 3.59-4.285 10.735-11.333 16.24-16.018 3.53-3.005 11.246-8.75 16.762-12.484 5.964-4.037 12.767-8.155 21.306-12.893 4.673-2.593 17.323-9.067 22.082-11.303 1.907-.895 4.68-2.201 6.163-2.9 15.77-7.436 36.662-16.123 55.134-22.93 1.286-.473 10.144-3.47 17.123-5.816m-44.418 29.02a1 1 0 0 0-.144.024c-.585.146-10.479 4.395-12.686 5.447-1.175.56-2.87 1.344-3.767 1.742-.898.4-1.682.776-1.746.838l-.002.002-.002.002v.002l-.002.002c-.036.112.37.976.978 2.074a333 333 0 0 1 5.344 10.043c1.041 2.029 1.996 3.8 2.121 3.938.126.137.229.307.229.379 0 .071.175.326.39.566s.391.557.389.705.834 1.984 1.86 4.08c1.78 3.642 1.88 3.81 2.19 3.742.18-.038 1.443-.52 2.807-1.072 1.364-.55 5.382-2.067 8.93-3.371s6.51-2.429 6.582-2.502c.324-.329-.78-2.762-3.982-8.77-2.19-4.108-8.447-16.127-9.002-17.292-.22-.461-.304-.587-.487-.579" style="fill:#fff;fill-rule:evenodd;stroke-width:1.02897"/><path d="M-159.612 16.081a126.247 126.247 0 0 0-126.246 126.246 126.247 126.247 0 0 0 126.246 126.246A126.247 126.247 0 0 0-33.366 142.327 126.247 126.247 0 0 0-159.612 16.081m-3.068 19.482a106.764 107.18 0 0 1 106.763 107.18 106.764 107.18 0 0 1-90.398 105.777c5.51-5.9 10.88-13.805 14.494-21.44 1.56-3.292 2.31-4.468 2.328-3.646.023 1.103.095 1.055.772-.488.409-.936 1.12-3.56 1.584-5.83.644-3.17.92-3.87 1.187-3.012.193.615.594 1.037.893.936.864-.293 1.184-2.842 1.73-13.682.28-5.592.618-10.276.75-10.41s.248.174.256.688c.016.946 1.035 2.632 1.592 2.632h.008l.002-.002c.163-.098.295-2.217.295-4.795 0-3.915-.262-5.7-1.432-9.707-1.745-5.975-1.827-6.96-.443-5.357l.988 1.148-.264-2.673c-.173-1.753-.843-3.76-1.95-5.832-.926-1.739-3.152-6.223-4.944-9.967a300.957 302.128 0 0 0-2.817-5.71c12.095-4.288 23.278-8.289 23.803-8.556.888-.45 1.766-1.204 2.23-1.916.315-.48.384-.683.477-1.44.09-.734.075-.988-.088-1.49-.255-.786-1.06-1.906-1.822-2.533-.331-.272-5.624-3.854-11.764-7.957s-11.16-7.486-11.156-7.515c.006-.05-4.375-23.275-10.71-56.774q-2.675-14.14-2.712-15.08c-.02-.517-.12-1.17-.22-1.45-.89-2.472-4.21-4.327-8.02-4.478-3.657-.145-6.693 1.484-7.25 3.891-.146.626-.274.923-2.397 5.508l-2.593 5.605-2.582 5.578-2.59 5.608a412.765 414.37 0 0 1-1.422 3.062c-.067.137-.381.81-.695 1.494-.315.686-1.16 2.512-1.875 4.061-2.09 4.513-3.79 8.191-5.184 11.211a450.595 452.348 0 0 1-1.422 3.062c-.067.137-.38.812-.695 1.497-.315.686-1.16 2.51-1.875 4.058a10247.663 10287.532 0 0 0-4.902 10.596l-1.04 2.252-16.054 5.715c-10.931 3.892-16.29 5.85-16.791 6.138-2.31 1.324-3.047 3.523-1.858 5.53a8.154 8.186 0 0 0 .87 1.173c.224.242 6.488 4.488 14.44 9.836-2.555.93-4.79 1.883-6.476 2.797-2.57 1.394-3.326 2.13-4.943 4.807-1.545 2.557-1.944 3.722-2.107 6.13-.194 2.84-.077 3.223 2.556 8.46 3.242 6.443 4.88 8.522 7.027 8.916.853.156 4.24.098 7.526-.13 6.763-.47 7.336-.243 7.08 2.831-.172 2.076.642 2.414 1.898.79.528-.68 1.062-1.237 1.19-1.237.476 0 1.416 2.965 1.724 5.45.333 2.674.567 2.852 2.788 2.132.956-.31 1.128-.08 1.826 2.478.424 1.552.857 3.103.967 3.447.153.487.45.454 1.347-.144 1.117-.743 1.167-.72 1.682.785.77 2.248.677 2.812-.418 2.52-.603-.16-1.06.036-1.248.533-.4 1.057-.98.99-3.74-.434-2.697-1.392-3.855-1.553-3.452-.484.394 1.045-.42.925-5.203-.76-2.324-.819-6.5-2.033-9.277-2.697-2.778-.664-7.99-2.083-11.578-3.15-5.706-1.697-7.027-1.92-10.516-1.797l-3.99.14 1.672 1.094 1.674 1.09-2.391.04c-4.54.075-8.001 1.843-5.47 2.796 1.158.436-1.228 1.064-15.085 3.984a416.968 418.59 0 0 0-6.447 1.43 106.764 107.18 0 0 1-10.877-47.133A106.764 107.18 0 0 1-162.68 35.563m-6.182 38.252c.023-.02 1.08.438 2.35 1.02 5.15 2.358 8.235 3.347 11.863 3.8 3.587.448 6.447.27 12.183-.76 1.438-.257 2.646-.426 2.684-.372.084.12 2.526 13.846 2.469 13.875-.413.204-3.745 1.105-5.578 1.51-3.523.775-6.872 1.144-9.9 1.091-5.532-.096-10.553-1.379-16.233-4.152-2.457-1.2-5.684-3.06-5.748-3.307v-.007l.002-.002v-.002c.033-.063 1.367-2.937 2.965-6.385 1.596-3.448 2.92-6.286 2.943-6.309m-12.206 26.317.004.002c.065 0 .303.16.556.38 1.789 1.54 4.608 3.303 7.432 4.65 11.634 5.544 26.605 6.094 37.324 1.37l1.123-.494 1.123 6.264 1.125 6.265-.716.526c-2.07 1.51-5.544 3.137-8.57 4.013-4.192 1.214-8.481 1.75-13.526 1.688-1.337-.016-6.87-.576-8.037-.813-4.826-.979-8.17-2.059-11.861-3.834-4.26-2.047-7.247-4.202-10.024-7.224a21 21 0 0 1-1.027-1.19l-.244-.33 2.62-5.607c1.442-3.084 2.65-5.633 2.69-5.662v-.002h.002z" style="fill:#fff;fill-rule:evenodd;stroke-width:1.13069"/></svg>