<svg xmlns="http://www.w3.org/2000/svg" xml:space="preserve" width="256" height="256"><path d="M128.586 1.754A126.246 126.246 0 0 0 2.34 128a126.246 126.246 0 0 0 126.246 126.246A126.246 126.246 0 0 0 254.832 128 126.246 126.246 0 0 0 128.586 1.754m0 19.482a106.76 106.76 0 0 1 96.045 60.137c-9.037 3.325-18.95 6.991-21.512 7.973-8.557 3.276-20.972 8.15-26.308 10.328-1.921.784-3.466 1.343-3.653 1.32-.26-.031-.426-.242-.855-1.084a1830 1830 0 0 0-2.744-5.338c-1.218-2.362-5.885-11.699-10.371-20.75-12.947-26.119-13.863-27.92-15.39-30.254-1.8-2.755-4.89-5.486-7.92-7.002-2.252-1.127-5.39-1.721-8.306-1.646a16.3 16.3 0 0 0-2.802.303c-4.032.815-7.5 2.573-9.512 4.82-1.683 1.878-3.461 4.262-4.113 5.512-1.102 2.11-4.104 8.443-5.018 10.586a109 109 0 0 1-2.033 4.4 82 82 0 0 0-1.95 4.293 122 122 0 0 1-2.003 4.539 334 334 0 0 0-2.371 5.219 302 302 0 0 1-2.348 5.156c-.657 1.4-1.583 3.425-2.057 4.502a369 369 0 0 1-2.511 5.5 398 398 0 0 0-2.249 4.895c-.328.742-1.197 2.652-1.931 4.242s-1.334 2.984-1.334 3.1c0 .114-.12.33-.266.48-.154.157-.234.356-.19.474.046.12-.029.31-.179.452a1.44 1.44 0 0 0-.346.6c-.047.195-.124.386-.171.421-.048.036-.437.829-.866 1.762-.428.933-1.71 3.715-2.847 6.183s-2.133 4.715-2.215 4.993c-.077.26-.175.476-.227.502l-.006.001h-.004c-.139 0-.384.636-.384.995 0 .18-.052.295-.116.255-.139-.087-.27.227-.27.649 0 .17-.094.362-.21.428s-.225.304-.242.53c-.018.233-.172.556-.356.743-.178.182-.479.723-.668 1.203s-.392.935-.449 1.006c-.136.172-2.22 4.665-3.088 6.656-.375.861-.758 1.643-.851 1.739-.093.095-.17.31-.17.48a.82.82 0 0 1-.192.502c-.106.108-.191.347-.191.531s-.062.336-.137.336-.102.055-.062.121-.015.208-.121.317c-.107.108-.196.262-.196.341 0 .226-.49 1.15-.623 1.178h-.006c-.061.006-.182.196-.267.426-.086.233-.206.557-.27.719-.063.162-.168.425-.23.586-.583 1.51-.867 2.13-1.164 2.547-.192.268-.388.648-.436.843a1.5 1.5 0 0 1-.355.608c-.15.142-.228.325-.176.41.051.084-.03.32-.18.525s-.271.458-.271.559-.117.333-.258.516c-.141.182-.258.438-.258.57s-.103.417-.23.633c-.127.215-.395.787-.596 1.271-.195.47-.402.857-.469.881h-.002l-.002.002h-.002c-.06 0-.109.089-.109.2a.32.32 0 0 1-.191.275c-.106.04-.194.182-.194.312a.67.67 0 0 1-.17.41c-.093.096-.206.362-.252.592-.045.231-.24.671-.431.979-.192.306-2.233 4.436-4.535 9.173s-4.64 9.493-5.194 10.57l-2.517 4.893c-3.47 6.747-5.002 9.825-5.002 10.053a.7.7 0 0 1-.186.43c-.102.104-.225.358-.273.564s-.144.446-.213.535c-.199.256-.867 1.736-.867 1.92 0 .092-.105.31-.233.48-.127.171-.372.686-.545 1.143-.173.458-.439.918-.593 1.022-.155.104-.255.262-.221.351.024.063-.03.268-.123.526A106.76 106.76 0 0 1 21.822 128 106.764 106.764 0 0 1 128.586 21.236m-.37 39.403c1.488 0 2.8.84 3.83 2.459.324.507 1.302 2.45 2.173 4.316.87 1.866 5.796 11.97 10.949 22.45s9.402 19.263 9.443 19.52l.075.47-1.778.76c-3.074 1.313-9.263 4.045-11.5 5.075-8.991 4.143-28.45 14.327-36.105 18.897-.777.464-3.523 2.107-6.1 3.652a936 936 0 0 1-6.545 3.895c-1.024.597-2.324 1.398-2.888 1.781-.716.487-1.152.697-1.444.697-.515 0-.525-.137-.097-1.17.492-1.189 3.928-8.623 6.035-13.056a556 556 0 0 0 6.353-13.834c.974-2.19 2.648-5.919 3.72-8.287 1.073-2.37 3.154-7.038 4.624-10.375 1.47-3.338 3.221-7.271 3.89-8.743.669-1.471 2.182-4.85 3.364-7.505s2.637-5.915 3.236-7.243a575 575 0 0 0 2.371-5.351c1.937-4.441 2.836-6.147 3.715-7.055 1.009-1.042 1.627-1.353 2.68-1.353m103.643 40.28A106.8 106.8 0 0 1 235.35 128a106.764 106.764 0 0 1-106.763 106.764 106.76 106.76 0 0 1-67.297-23.88 92 92 0 0 1 6.56-12.96c1.936-3.159 6.489-9.425 9.2-12.66 3.59-4.285 10.735-11.333 16.24-16.018 3.53-3.005 11.246-8.75 16.762-12.484 5.964-4.037 12.767-8.155 21.306-12.893 4.673-2.593 17.323-9.067 22.082-11.303 1.907-.895 4.68-2.201 6.163-2.9 15.77-7.436 36.662-16.123 55.134-22.93 1.286-.473 10.144-3.47 17.123-5.816m-44.418 29.02a1 1 0 0 0-.144.024c-.585.146-10.479 4.395-12.686 5.447-1.175.56-2.87 1.344-3.767 1.742-.898.4-1.682.776-1.746.838l-.002.002-.002.002v.002l-.002.002c-.036.112.37.976.978 2.074a333 333 0 0 1 5.344 10.043c1.041 2.029 1.996 3.8 2.121 3.938.126.137.229.307.229.379 0 .071.175.326.39.566s.391.557.389.705.834 1.984 1.86 4.08c1.78 3.642 1.88 3.81 2.19 3.742.18-.038 1.443-.52 2.807-1.072 1.364-.55 5.382-2.067 8.93-3.371s6.51-2.429 6.582-2.502c.324-.329-.78-2.762-3.982-8.77-2.19-4.108-8.447-16.127-9.002-17.292-.22-.461-.304-.587-.487-.579" style="fill:#fff;fill-rule:evenodd;stroke-width:1.02897"/></svg>