<?xml version="1.0" encoding="UTF-8" standalone="no"?>
<!-- Created with Inkscape (http://www.inkscape.org/) -->

<svg
   width="1536"
   height="450"
   viewBox="0 0 1024 300"
   version="1.1"
   id="svg1"
   xmlns:xlink="http://www.w3.org/1999/xlink"
   xmlns="http://www.w3.org/2000/svg"
   xmlns:svg="http://www.w3.org/2000/svg">
  <defs
     id="defs1">
    <linearGradient
       id="linearGradient20">
      <stop
         offset="0"
         style="stop-color:#ffbe8f;stop-opacity:1;"
         id="stop16" />
      <stop
         offset="0.28"
         style="stop-color:#b64d5f;stop-opacity:1;"
         id="stop17" />
      <stop
         offset="0.54000002"
         style="stop-color:#6d4793;stop-opacity:1;"
         id="stop18" />
      <stop
         offset="0.80000001"
         style="stop-color:#4f5fb0;stop-opacity:1;"
         id="stop19" />
      <stop
         offset="1"
         style="stop-color:#4075bf;stop-opacity:1;"
         id="stop20" />
    </linearGradient>
    <radialGradient
       xlink:href="#linearGradient20"
       id="radialGradient23"
       gradientUnits="userSpaceOnUse"
       gradientTransform="matrix(20.81334,1.5190796,-0.63491344,6.461285,-403.98135,-490.90107)"
       cx="24.885506"
       cy="119.83994"
       fx="24.885506"
       fy="119.83994"
       r="51.055538" />
    <radialGradient
       xlink:href="#linearGradient20"
       id="radialGradient24"
       gradientUnits="userSpaceOnUse"
       gradientTransform="matrix(1.9245113,0.16300297,-0.05870745,0.69332024,-17.397801,-1.3494139)"
       cx="24.885506"
       cy="119.83994"
       fx="24.885506"
       fy="119.83994"
       r="51.055538" />
    <radialGradient
       xlink:href="#linearGradient20"
       id="radialGradient25"
       gradientUnits="userSpaceOnUse"
       gradientTransform="matrix(1.9245113,0.16300297,-0.05870745,0.69332024,-17.397801,-1.3494139)"
       cx="24.885506"
       cy="119.83994"
       fx="24.885506"
       fy="119.83994"
       r="51.055538" />
    <radialGradient
       xlink:href="#linearGradient20"
       id="radialGradient26"
       gradientUnits="userSpaceOnUse"
       gradientTransform="matrix(1.9245113,0.16300297,-0.05870745,0.69332024,-17.397801,-1.3494139)"
       cx="24.885506"
       cy="119.83994"
       fx="24.885506"
       fy="119.83994"
       r="51.055538" />
  </defs>
  <g
     id="layer1"
     transform="translate(-19.428787,-83.934972)">
    <path
       id="path18"
       style="font-weight:596;font-size:31.4035px;font-family:'Red Hat Display';-inkscape-font-specification:'Red Hat Display weight=596';font-variation-settings:normal;letter-spacing:-1.2267px;display:inline;vector-effect:none;fill:url(#radialGradient23);fill-opacity:1;stroke:none;stroke-width:13.7778;stroke-linecap:butt;stroke-linejoin:miter;stroke-miterlimit:4;stroke-dasharray:none;stroke-dashoffset:0;stroke-opacity:1;-inkscape-stroke:none;stop-color:#000000"
       d="m 583.78779,202.41728 c -19.9687,3e-5 -36.67929,8.19488 -47.54729,22.5352 v -19.0243 h -33.95938 v 151.88798 h 33.95938 v -102.7198 c 8.83025,-17.55959 25.19689,-27.10711 44.83177,-26.92901 4.66226,0.0419 11.35297,1.2747 16.85273,2.59681 5.66412,-7.61303 11.22641,-14.8219 19.16401,-20.68106 -10.63582,-3.92734 -23.21464,-7.66584 -33.30122,-7.66582 z m 293.92253,0 c -19.96867,4e-5 -36.67934,8.19489 -47.5473,22.5352 v -19.0243 l -33.95939,0.73232 v 151.15567 h 33.95939 V 255.09636 c 8.83031,-17.55959 25.19686,-27.10711 44.8318,-26.92901 0.91818,0.008 1.86242,0.0503 2.82949,0.11947 6.50677,-8.48824 14.29931,-15.71971 23.10251,-21.62631 -7.94785,-2.42969 -16.18813,-4.24322 -23.2165,-4.24321 z m -190.50526,0.58171 c -50.26447,0 -90.0004,35.72315 -90.0004,79.0368 0,43.31365 39.73593,77.26057 90.0004,77.26057 50.26446,0 90.00039,-33.94692 90.00039,-77.26057 0,-43.31365 -39.73593,-79.0368 -90.00039,-79.0368 z m 280.48487,0.58684 c -33.79268,0 -61.55651,12.85154 -78.42316,36.02308 l 18.66646,13.20743 c 19.44622,-17.85987 39.04212,-24.64901 55.00454,-24.64901 27.50957,0 47.20533,10.24613 47.20533,31.31764 v 15.80424 c -14.26432,-5.56053 -35.05655,-8.4864 -51.69826,-8.4864 -43.47188,0 -71.53085,19.03693 -71.53085,47.13227 0,26.9247 27.72014,45.36124 65.07892,45.36124 21.05676,0 42.867,-6.74867 58.15019,-17.28443 v 15.80425 h 33.2856 V 255.97409 c 0,-33.94854 -41.9461,-52.38824 -75.73877,-52.38824 z m -526.33152,2.34233 V 332.35692 H 398.9053 c -26.49073,0 -43.13198,-14.63581 -43.13198,-38.0486 v -83.82533 c -10.87101,8.84428 -22.38587,16.94599 -33.62253,24.18158 v 64.61925 c 0,34.53386 27.50618,58.53232 67.5819,58.53232 h 51.62572 33.95939 V 205.92818 Z m 245.84665,22.82605 c 31.58511,0 56.7147,24.30823 56.7147,53.28154 0,28.97333 -25.12959,51.50531 -56.7147,51.50531 -31.5851,0 -56.71989,-22.53198 -56.71989,-51.50531 0,-28.97331 25.13479,-53.28154 56.71989,-53.28154 z m 273.95529,58.24146 c 17.32088,0 36.077,2.92562 48.98275,9.36414 v 25.16837 c -12.56617,9.65777 -32.00081,16.11067 -50.34056,16.11067 -23.09451,0 -40.28171,-9.95031 -40.28171,-24.29065 0,-14.92564 16.84697,-26.35253 41.63952,-26.35253 z" />
    <g
       id="g26"
       style="font-variation-settings:normal;vector-effect:none;fill:url(#radialGradient26);fill-opacity:1;stroke:none;stroke-width:1.37239;stroke-linecap:butt;stroke-linejoin:miter;stroke-miterlimit:4;stroke-dasharray:none;stroke-dashoffset:0;stroke-opacity:1;-inkscape-stroke:none;stop-color:#000000"
       transform="matrix(10.028295,0,0,10.050305,-215.82639,-478.32543)">
      <path
         id="path23"
         style="font-variation-settings:normal;baseline-shift:baseline;display:inline;overflow:visible;opacity:1;vector-effect:none;fill:url(#radialGradient24);fill-opacity:1;stroke:none;stroke-width:1.37239;stroke-linecap:butt;stroke-linejoin:miter;stroke-miterlimit:4;stroke-dasharray:none;stroke-dashoffset:0;stroke-opacity:1;-inkscape-stroke:none;enable-background:accumulate;stop-color:#000000;stop-opacity:1"
         d="m 48.934071,55.945626 c -0.565089,-0.01874 -1.120185,0.222336 -1.492416,0.675411 L 23.45914,85.79445 30.407553,83.195126 47.019459,62.96897 v 7.375261 l 3.7052,-2.072225 v -10.47688 c -8.01e-4,-0.781799 -0.492212,-1.479257 -1.228349,-1.742529 -0.184052,-0.06579 -0.373876,-0.100723 -0.562239,-0.106971 z m 1.790588,16.764868 c -0.992167,0.572949 -2.010922,1.13548 -3.043225,1.682068 l -0.661975,0.350883 v 8.451681 h 3.7052 z" />
      <path
         style="font-variation-settings:normal;display:inline;vector-effect:none;fill:url(#radialGradient25);fill-opacity:1;fill-rule:nonzero;stroke:none;stroke-width:1.37239;stroke-linecap:butt;stroke-linejoin:miter;stroke-miterlimit:4;stroke-dasharray:none;stroke-dashoffset:0;stroke-opacity:1;-inkscape-stroke:none;stop-color:#000000;stop-opacity:1"
         d="m 31.950056,77.606851 c -0.0085,-0.196635 -0.460355,-0.722383 -0.05259,-1.179767 0.724959,-0.81317 3.772655,-1.944635 8.005246,-3.724563 2.891826,-1.216098 5.909475,-2.560627 8.667206,-4.043954 0.698647,-0.375788 1.359514,-0.749374 1.979348,-1.120019 1.664392,-0.995264 3.399089,-2.120065 4.850226,-3.297188 0.859732,-0.697393 1.594371,-1.392607 2.154924,-2.071824 0.535448,-0.648798 0.882549,-1.247368 1.051881,-1.792026 0.09165,-0.307528 0.147063,-0.57368 0.175805,-0.803807 0.02855,-0.228567 0.03092,-0.422589 0.01587,-0.587324 -0.01504,-0.164675 -0.04828,-0.309356 -0.09803,-0.438421 -0.05067,-0.131451 -0.121594,-0.254847 -0.217663,-0.371785 -0.202112,-0.246017 -0.506971,-0.451965 -0.90291,-0.612149 -0.420736,-0.170216 -0.904522,-0.272762 -1.388989,-0.330055 -0.83261,-0.09846 -1.674049,-0.06428 -2.237043,-0.01477 -0.264817,0.02329 -0.513582,0.05204 -0.736959,0.08137 -1.122032,0.147312 -1.436831,0.227344 -1.445882,0.198487 -0.0042,-0.01345 0.184245,-0.167266 1.379821,-0.513361 0.220381,-0.0638 0.466279,-0.130467 0.731217,-0.195804 0.554964,-0.136861 1.415444,-0.33255 2.320227,-0.406639 0.523368,-0.04286 1.106523,-0.04917 1.674421,0.0389 0.527179,0.08175 1.086838,0.251627 1.581374,0.59242 0.24217,0.166883 0.468063,0.374418 0.663656,0.629782 0.193771,0.252986 0.351545,0.544818 0.466127,0.875162 0.113826,0.328167 0.182372,0.686581 0.205402,1.072647 0.02305,0.386351 4.65e-4,0.798993 -0.06675,1.236925 -0.154012,0.971651 -0.594866,1.915956 -1.192844,2.801279 -0.627843,0.929539 -1.448447,1.823346 -2.358221,2.65928 -1.535778,1.41113 -3.372887,2.700385 -5.096721,3.76439 -0.648015,0.399976 -1.328479,0.807599 -2.045171,1.222748 -2.811938,1.628836 -5.865163,3.187369 -8.797631,4.497786 -4.280655,1.912874 -7.528028,2.95724 -8.58874,2.787125 -0.6075,-0.09743 -0.584007,-0.79903 -0.696616,-0.954844 z"
         id="path25" />
    </g>
  </g>
</svg>
